<?xml version="1.0" encoding="UTF-8" standalone="no"?>
<!-- Created with Inkscape (http://www.inkscape.org/) -->

<svg
   width="86.671753mm"
   height="31.911409mm"
   viewBox="0 0 86.671753 31.911409"
   version="1.1"
   id="svg1"
   xml:space="preserve"
   xmlns="http://www.w3.org/2000/svg"
   xmlns:svg="http://www.w3.org/2000/svg"><defs
     id="defs1"><marker
       style="overflow:visible"
       id="ArrowTriangleStylized"
       refX="0"
       refY="0"
       orient="auto-start-reverse"
       markerWidth="1.5"
       markerHeight="1.5"
       viewBox="0 0 1 1"
       preserveAspectRatio="xMidYMid"><path
         transform="scale(0.5)"
         style="fill:context-stroke;fill-rule:evenodd;stroke:context-stroke;stroke-width:1pt"
         d="m 6,0 c -3,1 -7,3 -9,5 0,0 0,-4 2,-5 -2,-1 -2,-5 -2,-5 2,2 6,4 9,5 z"
         id="path4" /></marker><linearGradient
       id="swatch1"><stop
         style="stop-color:#000000;stop-opacity:1;"
         offset="0"
         id="stop1" /></linearGradient></defs><g
     id="layer1"
     transform="translate(-117.8666,-208.88488)"><g
       id="g12"><path
         id="path159"
         style="fill:#cccccc;fill-opacity:1;stroke:#000000;stroke-width:0.522228;stroke-dasharray:none;stroke-opacity:1"
         d="m 118.13278,209.26121 -0.005,8.16694 21.81521,22.03793 27.17611,0.0713 23.78718,-21.39817 v -8.68216 l -72.72476,-0.19482 z" /><path
         id="path160"
         style="fill:#ffffff;fill-opacity:1;stroke:#000000;stroke-width:0.51351;stroke-dasharray:none;stroke-opacity:1"
         d="m 119.32392,210.13195 -0.3607,8.02845 0.0408,0.0946 21.92786,22.26066 h 25.07598 l 24.90288,-22.26996 v -7.92251 z" /><path
         id="path161"
         style="fill:#ffffff;fill-opacity:1;stroke:#000000;stroke-width:0.51351;stroke-dasharray:none;stroke-opacity:1"
         d="m 190.90638,210.21546 h -71.237 l 0.19586,7.88117 71.04114,0.19017 z" /><path
         id="path162"
         style="fill:#ffffff;fill-opacity:1;stroke:#000000;stroke-width:0.51351;stroke-dasharray:none;stroke-opacity:1"
         d="m 190.90638,209.14163 h -72.73923 l 0.29249,7.88169 72.44674,0.19378 z" /><path
         id="path163"
         style="fill:#ffffff;fill-opacity:1;stroke:#000000;stroke-width:0.51351;stroke-dasharray:none;stroke-opacity:1"
         d="m 119.68766,218.98526 21.03982,21.18579 -0.0785,-21.23288 z" /><path
         style="fill:#666666;stroke:#999999;stroke-width:0.5;stroke-dasharray:none;stroke-dashoffset:0"
         d="m 141.6739,219.05267 0.0468,20.64913"
         id="path164" /><path
         style="fill:#666666;stroke:#999999;stroke-width:0.5;stroke-dasharray:none;stroke-dashoffset:0"
         d="m 141.6739,209.77615 0.0468,6.66425"
         id="path165" /><path
         style="fill:#666666;stroke:#999999;stroke-width:0.5;stroke-dasharray:none;stroke-dashoffset:0"
         d="m 165.48642,219.05267 0.0468,20.64913"
         id="path166" /><path
         style="fill:#666666;stroke:#999999;stroke-width:0.5;stroke-dasharray:none;stroke-dashoffset:0"
         d="m 165.48642,209.77615 0.0468,6.66425"
         id="path167" /><path
         id="path168"
         style="fill:#ffffff;fill-opacity:1;stroke:#000000;stroke-width:0.51351;stroke-dasharray:none;stroke-opacity:1"
         d="m 190.01116,218.98519 -23.75261,21.18579 0.0785,-21.23288 z" /><path
         style="fill:none;stroke:#000000;stroke-width:0.3;stroke-dasharray:none;stroke-dashoffset:0;marker-end:url(#ArrowTriangleStylized)"
         d="m 153.85515,209.15312 c -4.88272,4.13623 -7.25985,8.2279 -0.8419,15.41117"
         id="path200" /><text
         xml:space="preserve"
         style="font-style:normal;font-variant:normal;font-weight:bold;font-stretch:normal;font-size:11.2889px;line-height:0;font-family:'Century Gothic';-inkscape-font-specification:'Century Gothic Bold';fill:#ffffff;stroke:#000000;stroke-width:0.3;stroke-dasharray:none;stroke-dashoffset:0"
         x="189.29607"
         y="234.60919"
         id="text219"><tspan
           id="tspan219"
           style="fill:#ffffff;stroke-width:0.3"
           x="189.29607"
           y="234.60919">12.</tspan></text></g></g></svg>
