<?xml version="1.0" encoding="UTF-8" standalone="no"?>
<!-- Created with Inkscape (http://www.inkscape.org/) -->

<svg
   width="85.466171mm"
   height="51.173363mm"
   viewBox="0 0 85.466171 51.173363"
   version="1.1"
   id="svg1"
   xml:space="preserve"
   xmlns="http://www.w3.org/2000/svg"
   xmlns:svg="http://www.w3.org/2000/svg"><defs
     id="defs1"><marker
       style="overflow:visible"
       id="RoundedArrow"
       refX="0"
       refY="0"
       orient="auto-start-reverse"
       markerWidth="0.69999999"
       markerHeight="0.69999999"
       viewBox="0 0 1 1"
       preserveAspectRatio="xMidYMid"><path
         transform="scale(0.7)"
         d="m -0.21114562,-4.1055728 6.42229122,3.21114561 a 1,1 90 0 1 0,1.78885438 L -0.21114562,4.1055728 A 1.236068,1.236068 31.717474 0 1 -2,3 v -6 a 1.236068,1.236068 148.28253 0 1 1.78885438,-1.1055728 z"
         style="fill:context-stroke;fill-rule:evenodd;stroke:none"
         id="path153" /></marker><marker
       style="overflow:visible"
       id="ArrowTriangleStylized"
       refX="0"
       refY="0"
       orient="auto-start-reverse"
       markerWidth="1.5"
       markerHeight="1.5"
       viewBox="0 0 1 1"
       preserveAspectRatio="xMidYMid"><path
         transform="scale(0.5)"
         style="fill:context-stroke;fill-rule:evenodd;stroke:context-stroke;stroke-width:1pt"
         d="m 6,0 c -3,1 -7,3 -9,5 0,0 0,-4 2,-5 -2,-1 -2,-5 -2,-5 2,2 6,4 9,5 z"
         id="path4" /></marker><linearGradient
       id="swatch1"><stop
         style="stop-color:#000000;stop-opacity:1;"
         offset="0"
         id="stop1" /></linearGradient></defs><g
     id="layer1"
     transform="translate(-119.07219,-155.22687)"><g
       id="g11"><path
         id="path140"
         style="fill:#cccccc;fill-opacity:1;stroke:#000000;stroke-width:0.58186;stroke-dasharray:none;stroke-opacity:1"
         d="m 119.43358,166.82642 -0.005,10.32736 21.41627,27.86772 26.34841,-0.0421 23.68292,-26.92641 v -10.97893 l -71.39484,-0.24636 z" /><path
         id="path141"
         style="fill:#ffffff;fill-opacity:1;stroke:#000000;stroke-width:0.51351;stroke-dasharray:none;stroke-opacity:1"
         d="m 119.41357,175.7359 v 8.57184 l 21.51831,21.81187 h 25.07598 l 24.90288,-22.26996 v -7.92251 c -20.67359,1.32228 -39.92396,3.77744 -71.49717,-0.19124 z" /><path
         id="path142"
         style="fill:#ffffff;fill-opacity:1;stroke:#000000;stroke-width:0.51351;stroke-dasharray:none;stroke-opacity:1"
         d="m 190.90638,175.81941 c -26.95527,1.79078 -34.64259,3.2305 -71.237,0 l 0.19586,7.88117 71.04114,0.19017 z" /><path
         id="path144"
         style="fill:#ffffff;fill-opacity:1;stroke:#000000;stroke-width:0.51351;stroke-dasharray:none;stroke-opacity:1"
         d="m 119.68766,184.58921 21.03982,21.18579 -0.0785,-21.23288 z" /><path
         style="fill:#666666;stroke:#999999;stroke-width:0.5;stroke-dasharray:none;stroke-dashoffset:0"
         d="m 141.67391,184.65662 0.0468,20.64913"
         id="path145" /><path
         style="fill:#666666;stroke:#999999;stroke-width:0.435677;stroke-dasharray:none;stroke-dashoffset:0"
         d="m 141.67365,178.09417 0.0473,5.00644"
         id="path146" /><path
         style="fill:#666666;stroke:#999999;stroke-width:0.5;stroke-dasharray:none;stroke-dashoffset:0"
         d="m 165.48642,184.65662 0.0468,20.64913"
         id="path147" /><path
         style="fill:#666666;stroke:#999999;stroke-width:0.435677;stroke-dasharray:none;stroke-dashoffset:0"
         d="m 165.48616,178.09417 0.0473,5.00644"
         id="path148" /><path
         id="path149"
         style="fill:#ffffff;fill-opacity:1;stroke:#000000;stroke-width:0.51351;stroke-dasharray:none;stroke-opacity:1"
         d="m 190.01116,184.58914 -23.75261,21.18579 0.0785,-21.23288 z" /><path
         style="fill:#666666;stroke:#999999;stroke-width:0.5;stroke-dasharray:none;stroke-dashoffset:0"
         d="m 120.34578,174.85093 h 69.26961"
         id="path150" /><path
         style="fill:none;stroke:#000000;stroke-width:0.991711;stroke-dasharray:0.991711, 0.991711;stroke-dashoffset:0;marker-end:url(#RoundedArrow)"
         d="m 170.60996,157.98051 c -16.34968,-0.32526 -16.8109,10.96453 -16.96661,15.17897"
         id="path151" /><text
         xml:space="preserve"
         style="font-size:7.05556px;line-height:0;fill:#ffffff;stroke:#000000;stroke-width:0.2;stroke-dasharray:none;stroke-dashoffset:0"
         x="171.57695"
         y="160.52208"
         id="text159"><tspan
           id="tspan159"
           style="font-style:normal;font-variant:normal;font-weight:normal;font-stretch:normal;font-size:7.05556px;line-height:0;font-family:'Century Gothic';-inkscape-font-specification:'Century Gothic';fill:#ffffff;stroke-width:0.2;stroke-dasharray:none"
           x="171.57695"
           y="160.52208">Sample</tspan></text><path
         style="fill:none;stroke:#000000;stroke-width:0.3;stroke-dasharray:none;stroke-dashoffset:0;marker-end:url(#ArrowTriangleStylized)"
         d="m 137.45229,166.88309 c -4.16911,4.84318 -4.41367,9.541 0.93545,14.03165"
         id="path170" /><text
         xml:space="preserve"
         style="font-style:normal;font-variant:normal;font-weight:bold;font-stretch:normal;font-size:11.2889px;line-height:0;font-family:'Century Gothic';-inkscape-font-specification:'Century Gothic Bold';fill:#ffffff;stroke:#000000;stroke-width:0.3;stroke-dasharray:none;stroke-dashoffset:0"
         x="189.29607"
         y="198.84314"
         id="text218"><tspan
           id="tspan218"
           style="fill:#ffffff;stroke-width:0.3"
           x="189.29607"
           y="198.84314">11.</tspan></text></g></g></svg>
