<?xml version="1.0" encoding="UTF-8" standalone="no"?>
<!-- Created with Inkscape (http://www.inkscape.org/) -->

<svg
   width="100.00161mm"
   height="31.887119mm"
   viewBox="0 0 100.00161 31.887119"
   version="1.1"
   id="svg1"
   xml:space="preserve"
   xmlns="http://www.w3.org/2000/svg"
   xmlns:svg="http://www.w3.org/2000/svg"><defs
     id="defs1"><marker
       style="overflow:visible"
       id="ArrowTriangleStylized"
       refX="0"
       refY="0"
       orient="auto-start-reverse"
       markerWidth="1.5"
       markerHeight="1.5"
       viewBox="0 0 1 1"
       preserveAspectRatio="xMidYMid"><path
         transform="scale(0.5)"
         style="fill:context-stroke;fill-rule:evenodd;stroke:context-stroke;stroke-width:1pt"
         d="m 6,0 c -3,1 -7,3 -9,5 0,0 0,-4 2,-5 -2,-1 -2,-5 -2,-5 2,2 6,4 9,5 z"
         id="path4" /></marker><linearGradient
       id="swatch1"><stop
         style="stop-color:#000000;stop-opacity:1;"
         offset="0"
         id="stop1" /></linearGradient></defs><g
     id="layer1"
     transform="translate(-4.3639267,-137.55496)"><g
       id="g3"><path
         id="path26"
         style="fill:#cccccc;fill-opacity:1;stroke:#000000;stroke-width:0.522228;stroke-dasharray:none;stroke-opacity:1"
         d="m 4.8058892,137.93103 -0.018,30.40323 H 102.30437 V 138.19284 L 4.8543392,137.93205 Z" /><path
         id="path30"
         style="fill:#ffffff;fill-opacity:1;stroke:#000000;stroke-width:0.51351;stroke-dasharray:none;stroke-opacity:1"
         d="m 5.9967492,138.80169 -1.36428,30.38363 H 102.15852 l 0.007,-0.14408 -0.04,-0.0367 0.045,-0.0795 1.33838,-29.81558 -0.10242,-0.047 z" /><path
         id="path31"
         style="fill:#ffffff;fill-opacity:1;stroke:#000000;stroke-width:0.51351;stroke-dasharray:none;stroke-opacity:1"
         d="m 6.5380092,146.76683 97.4271108,0.26079 0.13713,-0.0191 -0.2344,-8.12317 H 6.3424192 Z" /><path
         id="path34"
         style="fill:#ffffff;fill-opacity:1;stroke:#000000;stroke-width:0.51351;stroke-dasharray:none;stroke-opacity:1"
         d="m 5.1325592,145.69318 97.4303208,0.26079 0.1369,-0.0191 -0.33447,-8.12316 H 4.8398892 Z" /><path
         style="fill:none;stroke:#000000;stroke-width:0.280308;stroke-dasharray:1.68186, 1.68186;stroke-dashoffset:0"
         d="M 5.6442592,146.8254 27.459348,168.6103"
         id="path38" /><path
         style="fill:none;stroke:#000000;stroke-width:0.3;stroke-dasharray:none;stroke-dashoffset:0;marker-end:url(#ArrowTriangleStylized)"
         d="M 9.0964986,164.76785 C 14.980408,164.64943 20.216408,162.35739 23.383998,153.12619"
         id="path39" /><text
         xml:space="preserve"
         style="font-style:normal;font-variant:normal;font-weight:bold;font-stretch:normal;font-size:11.2889px;line-height:0;font-family:'Century Gothic';-inkscape-font-specification:'Century Gothic Bold';fill:#ffffff;stroke:#000000;stroke-width:0.3;stroke-dasharray:none;stroke-dashoffset:0"
         x="91.648155"
         y="166.35391"
         id="text210"><tspan
           id="tspan210"
           style="fill:#ffffff;stroke-width:0.3"
           x="91.648155"
           y="166.35391">3.</tspan></text></g></g></svg>
