<?xml version="1.0" encoding="UTF-8" standalone="no"?>
<!-- Created with Inkscape (http://www.inkscape.org/) -->

<svg
   width="99.825836mm"
   height="31.91132mm"
   viewBox="0 0 99.825836 31.91132"
   version="1.1"
   id="svg1"
   xml:space="preserve"
   xmlns="http://www.w3.org/2000/svg"
   xmlns:svg="http://www.w3.org/2000/svg"><defs
     id="defs1"><marker
       style="overflow:visible"
       id="ArrowTriangleStylized"
       refX="0"
       refY="0"
       orient="auto-start-reverse"
       markerWidth="1.5"
       markerHeight="1.5"
       viewBox="0 0 1 1"
       preserveAspectRatio="xMidYMid"><path
         transform="scale(0.5)"
         style="fill:context-stroke;fill-rule:evenodd;stroke:context-stroke;stroke-width:1pt"
         d="m 6,0 c -3,1 -7,3 -9,5 0,0 0,-4 2,-5 -2,-1 -2,-5 -2,-5 2,2 6,4 9,5 z"
         id="path4" /></marker><linearGradient
       id="swatch1"><stop
         style="stop-color:#000000;stop-opacity:1;"
         offset="0"
         id="stop1" /></linearGradient></defs><g
     id="layer1"
     transform="translate(-4.3526194,-176.96647)"><g
       id="g4"><path
         id="path47"
         style="fill:#cccccc;fill-opacity:1;stroke:#000000;stroke-width:0.522228;stroke-dasharray:none;stroke-opacity:1"
         d="m 4.6187992,177.34254 -0.005,8.16696 21.8149588,22.03783 75.688362,0.19844 V 177.60435 L 4.6670892,177.34356 Z" /><path
         id="path48"
         style="fill:#ffffff;fill-opacity:1;stroke:#000000;stroke-width:0.51351;stroke-dasharray:none;stroke-opacity:1"
         d="m 5.8094692,178.21328 -0.3607,8.02845 0.0413,0.0946 21.9278688,22.26065 h 74.553582 l 0.007,-0.14417 -0.0398,-0.0367 0.045,-0.0796 1.33842,-29.81576 -0.10232,-0.047 z" /><path
         id="path49"
         style="fill:#ffffff;fill-opacity:1;stroke:#000000;stroke-width:0.51351;stroke-dasharray:none;stroke-opacity:1"
         d="m 6.3509192,186.17834 97.4271208,0.26079 0.13713,-0.0191 -0.2344,-8.12317 H 6.1553292 Z" /><path
         id="path50"
         style="fill:#ffffff;fill-opacity:1;stroke:#000000;stroke-width:0.51351;stroke-dasharray:none;stroke-opacity:1"
         d="m 4.9454692,185.10469 97.4303308,0.26079 0.1369,-0.0191 -0.33447,-8.12316 H 4.6527992 Z" /><path
         id="path51"
         style="fill:#ffffff;fill-opacity:1;stroke:#000000;stroke-width:0.51351;stroke-dasharray:none;stroke-opacity:1"
         d="m 6.1733592,187.06676 21.0398188,21.18579 -0.0785,-21.23288 z" /><path
         style="fill:none;stroke:#000000;stroke-width:0.3;stroke-dasharray:1.8, 1.8;stroke-dashoffset:0"
         d="m 27.738648,177.23167 0.0468,31.4309"
         id="path52" /><path
         style="fill:none;stroke:#000000;stroke-width:0.3;stroke-dasharray:none;stroke-dashoffset:0;marker-end:url(#ArrowTriangleStylized)"
         d="m 17.727868,193.1627 c 6.5212,4.03511 13.19545,7.49928 23.34947,-0.0661"
         id="path53" /><text
         xml:space="preserve"
         style="font-style:normal;font-variant:normal;font-weight:bold;font-stretch:normal;font-size:11.2889px;line-height:0;font-family:'Century Gothic';-inkscape-font-specification:'Century Gothic Bold';fill:#ffffff;stroke:#000000;stroke-width:0.3;stroke-dasharray:none;stroke-dashoffset:0"
         x="91.752884"
         y="206.17171"
         id="text211"><tspan
           id="tspan211"
           style="fill:#ffffff;stroke-width:0.3"
           x="91.752884"
           y="206.17171">4.</tspan></text></g></g></svg>
