<?xml version="1.0" encoding="UTF-8" standalone="no"?>
<!-- Created with Inkscape (http://www.inkscape.org/) -->

<svg
   width="76.700745mm"
   height="31.896669mm"
   viewBox="0 0 76.700745 31.896669"
   version="1.1"
   id="svg1"
   xml:space="preserve"
   xmlns="http://www.w3.org/2000/svg"
   xmlns:svg="http://www.w3.org/2000/svg"><defs
     id="defs1"><marker
       style="overflow:visible"
       id="ArrowTriangleStylized"
       refX="0"
       refY="0"
       orient="auto-start-reverse"
       markerWidth="1.5"
       markerHeight="1.5"
       viewBox="0 0 1 1"
       preserveAspectRatio="xMidYMid"><path
         transform="scale(0.5)"
         style="fill:context-stroke;fill-rule:evenodd;stroke:context-stroke;stroke-width:1pt"
         d="m 6,0 c -3,1 -7,3 -9,5 0,0 0,-4 2,-5 -2,-1 -2,-5 -2,-5 2,2 6,4 9,5 z"
         id="path4" /></marker><linearGradient
       id="swatch1"><stop
         style="stop-color:#000000;stop-opacity:1;"
         offset="0"
         id="stop1" /></linearGradient></defs><g
     id="layer1"
     transform="translate(-27.477531,-215.6351)"><g
       id="g5"><path
         id="path62"
         style="fill:#cccccc;fill-opacity:1;stroke:#000000;stroke-width:0.522228;stroke-dasharray:none;stroke-opacity:1"
         d="m 27.782698,216.07428 v 30.14545 l 74.334472,0.19482 v -30.14131 z" /><path
         id="path61"
         style="fill:#ffffff;fill-opacity:1;stroke:#000000;stroke-width:0.51351;stroke-dasharray:none;stroke-opacity:1"
         d="m 27.743428,216.94038 0.03875,30.32528 h 74.189262 l 0.007,-0.14418 -0.0398,-0.0367 0.045,-0.0796 1.33842,-29.81575 -0.10232,-0.047 z" /><path
         id="path64"
         style="fill:#ffffff;fill-opacity:1;stroke:#000000;stroke-width:0.51351;stroke-dasharray:none;stroke-opacity:1"
         d="m 27.782698,216.9657 v 7.93853 l 75.995352,0.20361 0.13695,-0.0191 -0.2341,-8.12302 z" /><path
         id="path63"
         style="fill:#ffffff;fill-opacity:1;stroke:#000000;stroke-width:0.51351;stroke-dasharray:none;stroke-opacity:1"
         d="m 27.782698,215.89186 v 7.94267 l 74.592852,0.19947 0.13695,-0.0191 -0.33435,-8.12302 z" /><path
         id="path55"
         style="fill:#ffffff;fill-opacity:1;stroke:#000000;stroke-width:0.507147;stroke-dasharray:none;stroke-opacity:1"
         d="m 27.736138,215.90418 h 23.14416 v 9.1282 l -23.1491,21.91016 z" /><path
         style="fill:none;stroke:#000000;stroke-width:0.3;stroke-dasharray:1.8, 1.8;stroke-dashoffset:0"
         d="m 51.529048,215.79936 v 31.48542"
         id="path65" /><path
         style="fill:none;stroke:#000000;stroke-width:0.325363;stroke-dasharray:none;stroke-dashoffset:0;marker-end:url(#ArrowTriangleStylized)"
         d="m 32.739658,231.61267 c 7.88326,3.92618 15.95154,7.29684 28.2264,-0.0643"
         id="path60" /><text
         xml:space="preserve"
         style="font-style:normal;font-variant:normal;font-weight:bold;font-stretch:normal;font-size:11.2889px;line-height:0;font-family:'Century Gothic';-inkscape-font-specification:'Century Gothic Bold';fill:#ffffff;stroke:#000000;stroke-width:0.3;stroke-dasharray:none;stroke-dashoffset:0"
         x="91.71981"
         y="244.77618"
         id="text212"><tspan
           id="tspan212"
           style="fill:#ffffff;stroke-width:0.3"
           x="91.71981"
           y="244.77618">5.</tspan></text></g></g></svg>
