<?xml version="1.0" encoding="UTF-8" standalone="no"?>
<!-- Created with Inkscape (http://www.inkscape.org/) -->

<svg
   width="52.618008mm"
   height="43.122883mm"
   viewBox="0 0 52.618008 43.122883"
   version="1.1"
   id="svg1"
   xml:space="preserve"
   xmlns="http://www.w3.org/2000/svg"
   xmlns:svg="http://www.w3.org/2000/svg"><defs
     id="defs1"><linearGradient
       id="swatch1"><stop
         style="stop-color:#000000;stop-opacity:1;"
         offset="0"
         id="stop1" /></linearGradient></defs><g
     id="layer1"
     transform="translate(-51.295678,-251.6691)"><g
       id="g6"><path
         id="path74"
         style="fill:#cccccc;fill-opacity:1;stroke:#000000;stroke-width:0.522228;stroke-dasharray:none;stroke-opacity:1"
         d="m 75.672278,253.77378 v 30.14286 l 26.180312,0.0687 v -30.14131 z" /><path
         id="path73"
         style="fill:#ffffff;fill-opacity:1;stroke:#000000;stroke-width:0.51351;stroke-dasharray:none;stroke-opacity:1"
         d="m 75.672278,254.64039 v 30.19609 h 26.034582 l 0.007,-0.14418 -0.0398,-0.0367 0.045,-0.0796 1.33842,-29.81575 -0.10232,-0.047 z" /><path
         id="path76"
         style="fill:#ffffff;fill-opacity:1;stroke:#000000;stroke-width:0.51351;stroke-dasharray:none;stroke-opacity:1"
         d="m 75.672278,254.53652 v 8.06772 l 27.841192,0.0744 0.13694,-0.0191 -0.23409,-8.12302 z" /><path
         id="path75"
         style="fill:#ffffff;fill-opacity:1;stroke:#000000;stroke-width:0.51351;stroke-dasharray:none;stroke-opacity:1"
         d="m 75.672278,253.46268 v 8.07135 l 26.438692,0.0708 0.13694,-0.0191 -0.33434,-8.12302 z" /><rect
         style="fill:#ffffff;stroke:#000000;stroke-width:0.498915;stroke-dasharray:none;stroke-dashoffset:0"
         id="rect76"
         width="24.041979"
         height="31.386385"
         x="51.545135"
         y="253.46815" /><path
         d="m 75.212248,286.73182 c -0.43371,0.36147 -0.41655,1.01131 -0.22828,1.49616 l 1.1518,3.04593 c -0.48255,0.88823 -0.34106,1.7641 -0.57725,1.7648 -0.18473,0.002 -0.1447,-0.16913 -0.62545,-0.14234 -0.46156,0.0261 -0.80172,0.50865 -0.77015,0.96409 -0.004,0.45572 0.34933,0.92705 0.83085,0.92968 0.48516,0.0328 0.93448,-0.37671 0.96484,-0.85937 0.0826,-0.56551 -0.26291,-1.56552 0.57722,-2.03758 0.64648,0.34797 0.65007,0.96872 0.61945,1.53001 -0.0254,0.46602 0.10973,1.02529 0.56837,1.24617 0.43955,0.21347 1.06366,0.003 1.19657,-0.49246 0.18112,-0.49814 -0.0517,-1.1808 -0.62423,-1.29751 -0.44129,-0.0899 -0.64761,0.22303 -0.80807,0.1036 -0.12106,-0.0902 -0.0526,-0.6648 -0.51547,-1.68689 l 1.1542,-3.30537 c 0.11526,-0.41759 0.10989,-0.92741 -0.30146,-1.29576 l -1.28394,3.42728 -1.32904,-3.39044 z m -0.68565,6.79991 c 0.26699,-0.48149 0.99512,-0.44438 1.13758,0.0547 0.15865,0.45126 -0.27875,1.02973 -0.76876,0.88718 -0.40195,-0.0833 -0.55157,-0.61231 -0.36882,-0.9419 z m 2.97682,-0.0294 c 0.1838,-0.50212 1.0327,-0.41948 1.14823,0.0903 0.11847,0.33793 -0.0492,0.82204 -0.44755,0.85744 -0.48437,0.0676 -0.92385,-0.50083 -0.70068,-0.94771 z"
         id="path4599"
         style="stroke-width:0.371296;marker-start:none" /><path
         style="fill:none;stroke:#000000;stroke-width:0.285473;stroke-dasharray:0.285473, 0.285473;stroke-dashoffset:0"
         d="m 76.522018,251.6691 v 38.54027"
         id="path77" /><text
         xml:space="preserve"
         style="font-style:normal;font-variant:normal;font-weight:bold;font-stretch:normal;font-size:11.2889px;line-height:0;font-family:'Century Gothic';-inkscape-font-specification:'Century Gothic Bold';fill:#ffffff;stroke:#000000;stroke-width:0.3;stroke-dasharray:none;stroke-dashoffset:0"
         x="91.427666"
         y="282.72305"
         id="text213"><tspan
           id="tspan213"
           style="fill:#ffffff;stroke-width:0.3"
           x="91.427666"
           y="282.72305">6.</tspan></text></g></g></svg>
