<?xml version="1.0" encoding="UTF-8" standalone="no"?>
<!-- Created with Inkscape (http://www.inkscape.org/) -->

<svg
   width="86.671516mm"
   height="31.911406mm"
   viewBox="0 0 86.671516 31.911406"
   version="1.1"
   id="svg1"
   xml:space="preserve"
   xmlns="http://www.w3.org/2000/svg"
   xmlns:svg="http://www.w3.org/2000/svg"><defs
     id="defs1"><marker
       style="overflow:visible"
       id="ArrowTriangleStylized"
       refX="0"
       refY="0"
       orient="auto-start-reverse"
       markerWidth="1.5"
       markerHeight="1.5"
       viewBox="0 0 1 1"
       preserveAspectRatio="xMidYMid"><path
         transform="scale(0.5)"
         style="fill:context-stroke;fill-rule:evenodd;stroke:context-stroke;stroke-width:1pt"
         d="m 6,0 c -3,1 -7,3 -9,5 0,0 0,-4 2,-5 -2,-1 -2,-5 -2,-5 2,2 6,4 9,5 z"
         id="path4" /></marker><linearGradient
       id="swatch1"><stop
         style="stop-color:#000000;stop-opacity:1;"
         offset="0"
         id="stop1" /></linearGradient></defs><g
     id="layer1"
     transform="translate(-117.86684,-78.709059)"><g
       id="g9"><path
         id="path90"
         style="fill:#cccccc;fill-opacity:1;stroke:#000000;stroke-width:0.522228;stroke-dasharray:none;stroke-opacity:1"
         d="m 190.90638,79.281034 -72.72476,-0.19482 -0.0486,-0.001 -0.005,8.16694 21.8152,22.037926 50.9633,0.13385 z" /><path
         id="path91"
         style="fill:#ffffff;fill-opacity:1;stroke:#000000;stroke-width:0.51351;stroke-dasharray:none;stroke-opacity:1"
         d="m 190.91051,80.147134 -71.58684,-0.1912 -0.3607,8.02845 0.0413,0.0946 21.92786,22.260656 h 49.97834 z" /><path
         id="path92"
         style="fill:#ffffff;fill-opacity:1;stroke:#000000;stroke-width:0.51351;stroke-dasharray:none;stroke-opacity:1"
         d="m 190.90638,80.039644 h -71.237 l 0.19586,7.88117 71.04114,0.19017 z" /><path
         id="path93"
         style="fill:#ffffff;fill-opacity:1;stroke:#000000;stroke-width:0.51351;stroke-dasharray:none;stroke-opacity:1"
         d="m 190.90638,78.965814 h -72.73923 l 0.29249,7.88169 72.44674,0.19378 z" /><path
         id="path94"
         style="fill:#ffffff;fill-opacity:1;stroke:#000000;stroke-width:0.51351;stroke-dasharray:none;stroke-opacity:1"
         d="m 119.68766,88.809444 21.03982,21.185786 -0.0785,-21.232876 z" /><path
         style="fill:#666666;stroke:#999999;stroke-width:0.5;stroke-dasharray:none;stroke-dashoffset:0"
         d="m 141.6739,88.876854 0.0468,20.649126"
         id="path95" /><path
         style="fill:#666666;stroke:#999999;stroke-width:0.5;stroke-dasharray:none;stroke-dashoffset:0"
         d="m 141.6739,79.600334 0.0468,6.66425"
         id="path109" /><path
         style="fill:#666666;stroke:#999999;stroke-width:0.5;stroke-dasharray:none;stroke-dashoffset:0"
         d="m 165.48642,88.876854 0.0468,20.649126"
         id="path110" /><path
         style="fill:#666666;stroke:#999999;stroke-width:0.5;stroke-dasharray:none;stroke-dashoffset:0"
         d="m 165.48642,79.600334 0.0468,6.66425"
         id="path111" /><path
         style="fill:none;stroke:#000000;stroke-width:0.3;stroke-dasharray:1.8, 1.8;stroke-dashoffset:0"
         d="M 166.05824,110.29427 190.81343,88.155984"
         id="path115" /><path
         style="fill:none;stroke:#000000;stroke-width:0.3;stroke-dasharray:none;stroke-dashoffset:0;marker-end:url(#ArrowTriangleStylized)"
         d="m 186.46362,103.59079 c -9.73032,0.61026 -12.24813,-3.07925 -14.07843,-8.652846"
         id="path116" /><text
         xml:space="preserve"
         style="font-style:normal;font-variant:normal;font-weight:bold;font-stretch:normal;font-size:11.2889px;line-height:0;font-family:'Century Gothic';-inkscape-font-specification:'Century Gothic Bold';fill:#ffffff;stroke:#000000;stroke-width:0.3;stroke-dasharray:none;stroke-dashoffset:0"
         x="195.61852"
         y="102.74379"
         id="text216"><tspan
           id="tspan216"
           style="fill:#ffffff;stroke-width:0.3"
           x="195.61852"
           y="102.74379">9.</tspan></text></g></g></svg>
