<?xml version="1.0" encoding="UTF-8" standalone="no"?>
<!-- Created with Inkscape (http://www.inkscape.org/) -->

<svg
   width="49.447651mm"
   height="56.793827mm"
   viewBox="0 0 49.447651 56.793827"
   version="1.1"
   id="svg1"
   xmlns:inkscape="http://www.inkscape.org/namespaces/inkscape"
   xmlns:sodipodi="http://sodipodi.sourceforge.net/DTD/sodipodi-0.dtd"
   xmlns:xlink="http://www.w3.org/1999/xlink"
   xmlns="http://www.w3.org/2000/svg"
   xmlns:svg="http://www.w3.org/2000/svg">
  <sodipodi:namedview
     id="namedview1"
     pagecolor="#ffffff"
     bordercolor="#000000"
     borderopacity="0.25"
     inkscape:showpageshadow="2"
     inkscape:pageopacity="0.0"
     inkscape:pagecheckerboard="0"
     inkscape:deskcolor="#d1d1d1"
     inkscape:document-units="mm" />
  <defs
     id="defs1">
    <marker
       style="overflow:visible"
       id="Stop"
       refX="0"
       refY="0"
       orient="auto"
       inkscape:stockid="Stop"
       markerWidth="2"
       markerHeight="2"
       viewBox="0 0 1 1"
       inkscape:isstock="true"
       inkscape:collect="always"
       preserveAspectRatio="xMidYMid">
      <path
         style="fill:none;stroke:context-stroke;stroke-width:1"
         d="M 0,4 V -4"
         id="path23" />
    </marker>
    <linearGradient
       id="linearGradient4"
       inkscape:collect="always">
      <stop
         style="stop-color:#188dff;stop-opacity:0.44142857;"
         offset="0"
         id="stop3" />
      <stop
         style="stop-color:#005bb6;stop-opacity:1;"
         offset="1"
         id="stop4" />
    </linearGradient>
    <linearGradient
       id="linearGradient1"
       inkscape:collect="always">
      <stop
         style="stop-color:#ff1818;stop-opacity:0.44142857;"
         offset="0"
         id="stop1" />
      <stop
         style="stop-color:#b60000;stop-opacity:1;"
         offset="1"
         id="stop2" />
    </linearGradient>
    <radialGradient
       inkscape:collect="always"
       xlink:href="#linearGradient1"
       id="radialGradient2"
       cx="86.02607"
       cy="115.79405"
       fx="86.02607"
       fy="115.79405"
       r="17.884123"
       gradientUnits="userSpaceOnUse"
       gradientTransform="matrix(-1.1080142,-0.42108859,0.41952089,-1.1038892,126.19021,285.44699)" />
    <radialGradient
       inkscape:collect="always"
       xlink:href="#linearGradient4"
       id="radialGradient3"
       gradientUnits="userSpaceOnUse"
       gradientTransform="matrix(-0.83101065,-0.31581644,0.31464067,-0.8279169,111.74217,213.90925)"
       cx="86.02607"
       cy="115.79405"
       fx="86.02607"
       fy="115.79405"
       r="17.884123" />
  </defs>
  <g
     inkscape:label="Layer 1"
     inkscape:groupmode="layer"
     id="layer1"
     transform="translate(-53.94024,-25.64697)">
    <g
       id="g25"
       transform="translate(-42.410923,2.8103621)"
       inkscape:export-filename="g25.svg"
       inkscape:export-xdpi="96"
       inkscape:export-ydpi="96">
      <circle
         style="fill:url(#radialGradient2);stroke:none;stroke-width:0.2;stroke-linejoin:round;stroke-dasharray:0.2, 0.2"
         id="path1"
         cx="68.398041"
         cy="124.48487"
         r="17.884123"
         transform="rotate(-35.446179)" />
      <circle
         style="fill:url(#radialGradient3);stroke:none;stroke-width:0.2;stroke-linejoin:round;stroke-dasharray:0.2, 0.2"
         id="circle2"
         cx="68.398041"
         cy="93.18766"
         r="13.413092"
         transform="rotate(-35.446179)" />
      <path
         style="fill:none;stroke:#000000;stroke-width:0.2;stroke-linejoin:round;stroke-dasharray:none;stroke-opacity:1;marker-start:url(#Stop);marker-end:url(#Stop)"
         d="m 109.76425,36.2497 18.15044,25.496604"
         id="path4" />
      <path
         style="fill:none;stroke:#000000;stroke-width:0.2;stroke-linejoin:round;stroke-dasharray:none;stroke-opacity:1;marker-end:url(#Stop)"
         d="m 109.76425,36.2497 7.77876,10.927116"
         id="path5" />
      <g
         id="text5"
         style="font-size:9.87778px;line-height:0.9;font-family:Calibri;-inkscape-font-specification:Calibri;text-align:center;letter-spacing:0px;text-anchor:middle;stroke-width:0.2;stroke-linejoin:round"
         aria-label="An-">
        <path
           d="m 103.11893,34.835717 q 0.0386,0.106109 0.0386,0.173633 0.005,0.0627 -0.0338,0.09646 -0.0386,0.03376 -0.13023,0.04341 -0.0868,0.0096 -0.23633,0.0096 -0.14952,0 -0.24116,-0.0096 -0.0868,-0.0048 -0.13505,-0.01929 -0.0434,-0.01929 -0.0675,-0.04823 -0.0193,-0.02894 -0.0386,-0.07235 l -0.53537,-1.519287 h -2.594849 l -0.511252,1.499995 q -0.01447,0.04341 -0.03858,0.07717 -0.02412,0.02894 -0.07235,0.05305 -0.04341,0.01929 -0.130225,0.02894 -0.08199,0.0096 -0.217041,0.0096 -0.139871,0 -0.23151,-0.01447 -0.08682,-0.0096 -0.125402,-0.04341 -0.03376,-0.03376 -0.03376,-0.09646 0.0048,-0.06752 0.04341,-0.173633 l 2.093241,-5.797408 q 0.01929,-0.05305 0.04823,-0.08682 0.03376,-0.03376 0.09164,-0.05306 0.0627,-0.01929 0.15434,-0.02412 0.0965,-0.0096 0.24115,-0.0096 0.15434,0 0.25563,0.0096 0.10129,0.0048 0.16399,0.02412 0.0627,0.01929 0.0965,0.05788 0.0338,0.03376 0.053,0.08682 z m -2.68648,-5.117346 h -0.005 l -1.075554,3.110922 h 2.170414 z"
           id="path21" />
        <path
           style="font-size:65%;baseline-shift:super"
           d="m 106.24047,31.100441 q 0,0.02508 -0.0125,0.04389 -0.0125,0.01567 -0.0408,0.02821 -0.0282,0.01254 -0.0784,0.01881 -0.0502,0.0063 -0.12541,0.0063 -0.0784,0 -0.12853,-0.0063 -0.0502,-0.0063 -0.0784,-0.01881 -0.0282,-0.01254 -0.0408,-0.02821 -0.0125,-0.01881 -0.0125,-0.04389 v -1.652165 q 0,-0.241398 -0.0376,-0.388745 -0.0376,-0.147346 -0.10973,-0.253938 -0.0721,-0.106591 -0.1881,-0.163022 -0.11286,-0.05643 -0.26335,-0.05643 -0.19437,0 -0.38874,0.137941 -0.19437,0.137942 -0.40756,0.40442 v 1.971939 q 0,0.02508 -0.0125,0.04389 -0.0125,0.01567 -0.0408,0.02821 -0.0282,0.01254 -0.0784,0.01881 -0.0502,0.0063 -0.12853,0.0063 -0.0753,0 -0.12541,-0.0063 -0.0502,-0.0063 -0.0815,-0.01881 -0.0282,-0.01254 -0.0407,-0.02821 -0.009,-0.01881 -0.009,-0.04389 v -2.821534 q 0,-0.02508 0.009,-0.04076 0.009,-0.01881 0.0376,-0.03135 0.0282,-0.01567 0.0721,-0.01881 0.0439,-0.0063 0.116,-0.0063 0.069,0 0.11286,0.0063 0.047,0.0031 0.0721,0.01881 0.0251,0.01254 0.0345,0.03135 0.0125,0.01568 0.0125,0.04076 v 0.373069 q 0.23827,-0.266478 0.47339,-0.388744 0.23827,-0.125402 0.47966,-0.125402 0.28216,0 0.4734,0.09719 0.19437,0.09405 0.3135,0.253938 0.11913,0.159887 0.16929,0.376205 0.0533,0.213183 0.0533,0.514146 z m 2.21333,-1.504818 q 0,0.122266 -0.0282,0.169292 -0.0282,0.04703 -0.0815,0.04703 h -1.31045 q -0.0564,0 -0.0846,-0.04703 -0.0282,-0.05016 -0.0282,-0.169292 0,-0.119132 0.0282,-0.166157 0.0282,-0.04703 0.0846,-0.04703 h 1.31045 q 0.0251,0 0.0439,0.0094 0.0219,0.0094 0.0345,0.03762 0.0157,0.02508 0.022,0.06583 0.009,0.04076 0.009,0.100322 z"
           id="path22" />
      </g>
      <g
         id="text8"
         style="font-size:9.87778px;line-height:0.9;font-family:Calibri;-inkscape-font-specification:Calibri;text-align:center;letter-spacing:0px;text-anchor:middle;stroke-width:0.2;stroke-linejoin:round"
         aria-label="Cm+">
        <path
           d="m 123.36839,74.471622 q 0,0.07717 -0.005,0.135048 -0.005,0.05788 -0.0193,0.101286 -0.01,0.04341 -0.0289,0.07717 -0.0193,0.03376 -0.0675,0.08199 -0.0482,0.04823 -0.20258,0.149517 -0.15434,0.09646 -0.38585,0.192926 -0.22668,0.09164 -0.52572,0.15434 -0.29421,0.06752 -0.6463,0.06752 -0.60771,0 -1.09967,-0.202572 -0.48714,-0.202571 -0.8344,-0.598069 -0.34245,-0.395497 -0.53055,-0.974273 -0.18328,-0.583599 -0.18328,-1.340831 0,-0.776525 0.19775,-1.38424 0.20257,-0.607715 0.56431,-1.027328 0.36173,-0.424435 0.86334,-0.6463 0.50643,-0.221864 1.11896,-0.221864 0.2701,0 0.52573,0.05306 0.25562,0.04823 0.47266,0.125401 0.21704,0.07717 0.38585,0.178456 0.16881,0.101286 0.23152,0.16881 0.0675,0.0627 0.0868,0.09646 0.0193,0.03376 0.0289,0.08199 0.0145,0.04341 0.0193,0.106109 0.01,0.0627 0.01,0.149517 0,0.09646 -0.01,0.163987 -0.01,0.06752 -0.0289,0.115755 -0.0193,0.04341 -0.0482,0.06752 -0.0241,0.01929 -0.0627,0.01929 -0.0675,0 -0.1881,-0.09164 -0.12058,-0.09646 -0.3135,-0.207395 -0.18811,-0.115755 -0.46303,-0.207395 -0.27009,-0.09646 -0.65112,-0.09646 -0.41479,0 -0.75723,0.16881 -0.33762,0.163987 -0.57878,0.487137 -0.24115,0.32315 -0.3762,0.790994 -0.13023,0.463021 -0.13023,1.061089 0,0.593246 0.12541,1.051444 0.13022,0.453374 0.36655,0.762055 0.24116,0.303858 0.58843,0.463021 0.34726,0.15434 0.78617,0.15434 0.37138,0 0.6463,-0.09164 0.27974,-0.09164 0.47266,-0.202572 0.19775,-0.115755 0.32315,-0.207395 0.12541,-0.09164 0.19775,-0.09164 0.0338,0 0.0579,0.01447 0.0241,0.01447 0.0386,0.05788 0.0145,0.03858 0.0193,0.110932 0.01,0.07235 0.01,0.183279 z"
           id="path24" />
        <path
           style="font-size:65%;baseline-shift:super"
           d="m 128.30343,71.324768 q 0,0.02508 -0.0125,0.04389 -0.0125,0.01568 -0.0408,0.02822 -0.0282,0.01254 -0.0784,0.01881 -0.0502,0.0063 -0.1254,0.0063 -0.0784,0 -0.12853,-0.0063 -0.0502,-0.0063 -0.0815,-0.01881 -0.0282,-0.01254 -0.0408,-0.02822 -0.0125,-0.01881 -0.0125,-0.04389 v -1.714866 q 0,-0.178697 -0.0314,-0.326044 -0.0314,-0.147346 -0.10032,-0.253938 -0.069,-0.106591 -0.17556,-0.163022 -0.1066,-0.05643 -0.25081,-0.05643 -0.17869,0 -0.36053,0.137941 -0.17869,0.137942 -0.39501,0.40442 v 1.971939 q 0,0.02508 -0.0125,0.04389 -0.0125,0.01568 -0.0439,0.02822 -0.0282,0.01254 -0.0784,0.01881 -0.0502,0.0063 -0.1254,0.0063 -0.0721,0 -0.1254,-0.0063 -0.0502,-0.0063 -0.0815,-0.01881 -0.0282,-0.01254 -0.0408,-0.02822 -0.009,-0.01881 -0.009,-0.04389 v -1.714866 q 0,-0.178697 -0.0345,-0.326044 -0.0345,-0.147346 -0.10345,-0.253938 -0.069,-0.106591 -0.17557,-0.163022 -0.10345,-0.05643 -0.24766,-0.05643 -0.1787,0 -0.36053,0.137941 -0.18184,0.137942 -0.39502,0.40442 v 1.971939 q 0,0.02508 -0.0125,0.04389 -0.0125,0.01568 -0.0408,0.02822 -0.0282,0.01254 -0.0784,0.01881 -0.0502,0.0063 -0.12854,0.0063 -0.0752,0 -0.1254,-0.0063 -0.0502,-0.0063 -0.0815,-0.01881 -0.0282,-0.01254 -0.0408,-0.02822 -0.009,-0.01881 -0.009,-0.04389 v -2.821534 q 0,-0.02508 0.009,-0.04076 0.009,-0.01881 0.0376,-0.03135 0.0282,-0.01568 0.0721,-0.01881 0.0439,-0.0063 0.116,-0.0063 0.069,0 0.11286,0.0063 0.047,0.0031 0.0721,0.01881 0.0251,0.01254 0.0345,0.03135 0.0125,0.01568 0.0125,0.04076 v 0.37307 q 0.23826,-0.266479 0.46085,-0.388745 0.22572,-0.125402 0.45458,-0.125402 0.17556,0 0.31351,0.04076 0.14107,0.04076 0.24766,0.115996 0.1066,0.07211 0.18184,0.175562 0.0752,0.100322 0.1254,0.225723 0.14107,-0.153617 0.26648,-0.260208 0.12853,-0.106591 0.24453,-0.172427 0.11913,-0.06584 0.22886,-0.09405 0.11286,-0.03135 0.22572,-0.03135 0.27275,0 0.45772,0.09719 0.18496,0.09405 0.29782,0.253938 0.116,0.159886 0.16303,0.376204 0.0502,0.213183 0.0502,0.451445 z m 3.44227,-1.727406 q 0,0.05957 -0.009,0.103456 -0.009,0.04076 -0.0251,0.06897 -0.0157,0.02822 -0.0376,0.04076 -0.0219,0.01254 -0.047,0.01254 h -1.0283 v 1.141153 q 0,0.02508 -0.0125,0.04389 -0.0125,0.01568 -0.0408,0.02822 -0.0251,0.01254 -0.069,0.02195 -0.0439,0.0063 -0.10973,0.0063 -0.0627,0 -0.10973,-0.0063 -0.0439,-0.0094 -0.0721,-0.02195 -0.0251,-0.01254 -0.0376,-0.02822 -0.0125,-0.01881 -0.0125,-0.04389 V 69.823085 H 129.106 q -0.0282,0 -0.0502,-0.01254 -0.0188,-0.01254 -0.0345,-0.04076 -0.0157,-0.02822 -0.0251,-0.06897 -0.009,-0.04389 -0.009,-0.103456 0,-0.05643 0.009,-0.09719 0.009,-0.04389 0.0251,-0.07211 0.0157,-0.02822 0.0345,-0.04076 0.022,-0.01254 0.047,-0.01254 h 1.03143 v -1.141153 q 0,-0.02508 0.0125,-0.04389 0.0125,-0.02195 0.0376,-0.03449 0.0282,-0.01567 0.0721,-0.02194 0.047,-0.0094 0.10973,-0.0094 0.0658,0 0.10973,0.0094 0.0439,0.0063 0.069,0.02194 0.0282,0.01254 0.0408,0.03449 0.0125,0.01881 0.0125,0.04389 v 1.141153 h 1.03143 q 0.0251,0 0.0439,0.01254 0.022,0.01254 0.0376,0.04076 0.0188,0.02821 0.0251,0.07211 0.009,0.04076 0.009,0.09719 z"
           id="path25" />
      </g>
      <g
         id="text11"
         style="font-size:9.87778px;line-height:0.9;font-family:Calibri;-inkscape-font-specification:Calibri;text-align:center;letter-spacing:0px;text-anchor:middle;stroke-width:0.2;stroke-linejoin:round"
         aria-label="rA">
        <path
           style="font-style:italic;-inkscape-font-specification:'Calibri Italic'"
           d="m 110.0187,40.747643 q 0,0.01929 -0.01,0.07717 -0.005,0.05306 -0.0145,0.125402 -0.01,0.07235 -0.0289,0.149517 -0.0193,0.07717 -0.0482,0.144694 -0.0289,0.0627 -0.0627,0.106109 -0.0289,0.04341 -0.0675,0.04341 -0.0386,0 -0.0868,-0.01447 -0.0434,-0.01929 -0.10128,-0.04341 -0.0531,-0.02412 -0.1254,-0.03859 -0.0724,-0.01929 -0.16881,-0.01929 -0.16399,0 -0.38103,0.144694 -0.21222,0.139871 -0.41961,0.390674 -0.2074,0.250803 -0.38103,0.593246 -0.16881,0.342442 -0.2508,0.742762 l -0.38103,1.934077 q -0.01,0.03859 -0.0338,0.06752 -0.0241,0.02412 -0.0724,0.04341 -0.0482,0.01929 -0.13023,0.02894 -0.0772,0.0096 -0.19292,0.0096 -0.12058,0 -0.19775,-0.0096 -0.0724,-0.0096 -0.11575,-0.02894 -0.0386,-0.01929 -0.0531,-0.04341 -0.01,-0.02894 0,-0.06752 l 0.86334,-4.345644 q 0.005,-0.03376 0.0289,-0.0627 0.0241,-0.02894 0.0724,-0.04823 0.0482,-0.01929 0.11575,-0.02412 0.0724,-0.0096 0.16881,-0.0096 0.10129,0 0.16399,0.0096 0.0675,0.0048 0.10129,0.02412 0.0386,0.01929 0.0482,0.04823 0.01,0.02894 0.005,0.0627 l -0.15916,0.790994 q 0.11093,-0.197748 0.26045,-0.381028 0.15434,-0.183279 0.33279,-0.318326 0.17846,-0.139871 0.37138,-0.221865 0.19775,-0.08199 0.38585,-0.08199 0.082,0 0.16399,0.01447 0.0868,0.0096 0.15916,0.02894 0.0724,0.01447 0.12541,0.03858 0.0579,0.01929 0.0868,0.04823 0.0289,0.02894 0.0289,0.09164 z"
           id="path19" />
        <path
           style="font-size:65%;baseline-shift:sub"
           d="m 113.34498,46.988539 q 0.0251,0.06897 0.0251,0.112861 0.003,0.04076 -0.0219,0.0627 -0.0251,0.02194 -0.0847,0.02821 -0.0564,0.0063 -0.15361,0.0063 -0.0972,0 -0.15675,-0.0063 -0.0564,-0.0031 -0.0878,-0.01254 -0.0282,-0.01254 -0.0439,-0.03135 -0.0125,-0.01881 -0.0251,-0.04703 l -0.34798,-0.987537 h -1.68665 l -0.33232,0.974997 q -0.009,0.02822 -0.0251,0.05016 -0.0157,0.01881 -0.047,0.03449 -0.0282,0.01254 -0.0847,0.01881 -0.0533,0.0063 -0.14108,0.0063 -0.0909,0 -0.15048,-0.0094 -0.0564,-0.0063 -0.0815,-0.02821 -0.022,-0.02195 -0.022,-0.0627 0.003,-0.04389 0.0282,-0.112861 l 1.36061,-3.768315 q 0.0125,-0.03449 0.0313,-0.05643 0.0219,-0.02194 0.0596,-0.03448 0.0408,-0.01254 0.10032,-0.01568 0.0627,-0.0063 0.15676,-0.0063 0.10032,0 0.16615,0.0063 0.0658,0.0031 0.10659,0.01568 0.0408,0.01254 0.0627,0.03762 0.022,0.02195 0.0345,0.05643 z m -1.74622,-3.326275 h -0.003 l -0.69911,2.022099 h 1.41077 z"
           id="path20" />
      </g>
      <g
         id="text16"
         style="font-size:9.87778px;line-height:0.9;font-family:Calibri;-inkscape-font-specification:Calibri;text-align:center;letter-spacing:0px;text-anchor:middle;stroke-width:0.2;stroke-linejoin:round"
         aria-label="rC">
        <path
           style="font-style:italic;-inkscape-font-specification:'Calibri Italic'"
           d="m 119.0049,54.220422 q 0,0.01929 -0.01,0.07717 -0.005,0.05305 -0.0145,0.125401 -0.01,0.07235 -0.0289,0.149517 -0.0193,0.07717 -0.0482,0.144695 -0.0289,0.0627 -0.0627,0.106108 -0.0289,0.04341 -0.0675,0.04341 -0.0386,0 -0.0868,-0.01447 -0.0434,-0.01929 -0.10129,-0.04341 -0.053,-0.02412 -0.1254,-0.03858 -0.0724,-0.01929 -0.16881,-0.01929 -0.16399,0 -0.38103,0.144694 -0.21222,0.139871 -0.41961,0.390674 -0.2074,0.250803 -0.38103,0.593246 -0.16881,0.342443 -0.2508,0.742763 l -0.38103,1.934077 q -0.01,0.03858 -0.0338,0.06752 -0.0241,0.02412 -0.0724,0.04341 -0.0482,0.01929 -0.13022,0.02894 -0.0772,0.0096 -0.19293,0.0096 -0.12058,0 -0.19775,-0.0096 -0.0723,-0.0096 -0.11575,-0.02894 -0.0386,-0.01929 -0.0531,-0.04341 -0.01,-0.02894 0,-0.06752 l 0.86335,-4.345645 q 0.005,-0.03376 0.0289,-0.0627 0.0241,-0.02894 0.0724,-0.04823 0.0482,-0.01929 0.11576,-0.02412 0.0723,-0.0096 0.16881,-0.0096 0.10128,0 0.16398,0.0096 0.0675,0.0048 0.10129,0.02412 0.0386,0.01929 0.0482,0.04823 0.01,0.02894 0.005,0.0627 l -0.15916,0.790994 q 0.11093,-0.197748 0.26045,-0.381027 0.15434,-0.183279 0.3328,-0.318327 0.17845,-0.139871 0.37138,-0.221864 0.19774,-0.08199 0.38585,-0.08199 0.082,0 0.16398,0.01447 0.0868,0.0096 0.15917,0.02894 0.0723,0.01447 0.1254,0.03858 0.0579,0.01929 0.0868,0.04823 0.0289,0.02894 0.0289,0.09164 z"
           id="path17" />
        <path
           style="font-size:65%;baseline-shift:sub"
           d="m 122.002,60.078842 q 0,0.05016 -0.003,0.08778 -0.003,0.03762 -0.0125,0.06584 -0.006,0.02822 -0.0188,0.05016 -0.0125,0.02194 -0.0439,0.05329 -0.0314,0.03135 -0.13167,0.09719 -0.10032,0.0627 -0.2508,0.125401 -0.14735,0.05957 -0.34172,0.100321 -0.19124,0.04389 -0.42009,0.04389 -0.39502,0 -0.71479,-0.131672 -0.31664,-0.131671 -0.54236,-0.388744 -0.22259,-0.257074 -0.34486,-0.633278 -0.11913,-0.37934 -0.11913,-0.87154 0,-0.504741 0.12854,-0.899756 0.13167,-0.395015 0.3668,-0.667763 0.23512,-0.275883 0.56117,-0.420095 0.32918,-0.144212 0.72733,-0.144212 0.17556,0 0.34171,0.03449 0.16616,0.03135 0.30724,0.08151 0.14108,0.05016 0.2508,0.115996 0.10973,0.06584 0.15048,0.109726 0.0439,0.04076 0.0564,0.0627 0.0125,0.02195 0.0188,0.0533 0.009,0.02821 0.0125,0.06897 0.006,0.04076 0.006,0.09719 0,0.0627 -0.006,0.106591 -0.006,0.04389 -0.0188,0.07524 -0.0125,0.02822 -0.0314,0.04389 -0.0157,0.01254 -0.0408,0.01254 -0.0439,0 -0.12227,-0.05956 -0.0784,-0.0627 -0.20378,-0.134807 -0.12226,-0.07524 -0.30096,-0.134806 -0.17556,-0.0627 -0.42323,-0.0627 -0.26961,0 -0.4922,0.109726 -0.21945,0.106591 -0.3762,0.316639 -0.15676,0.210047 -0.24454,0.514146 -0.0846,0.300964 -0.0846,0.689708 0,0.38561 0.0815,0.683438 0.0846,0.294694 0.23826,0.495336 0.15675,0.197508 0.38247,0.300964 0.22573,0.100321 0.51102,0.100321 0.24139,0 0.42009,-0.05957 0.18183,-0.05956 0.30723,-0.131671 0.12854,-0.07524 0.21005,-0.134807 0.0815,-0.05957 0.12854,-0.05957 0.0219,0 0.0376,0.0094 0.0157,0.0094 0.0251,0.03762 0.009,0.02508 0.0125,0.07211 0.006,0.04702 0.006,0.119131 z"
           id="path18" />
      </g>
    </g>
  </g>
</svg>
